<svg width="50" height="50" viewBox="0 0 50 50" fill="none" xmlns="http://www.w3.org/2000/svg">
<path d="M20.8334 43.7498H29.1667C29.1667 44.8549 28.7277 45.9147 27.9463 46.6961C27.1649 47.4775 26.1051 47.9165 25 47.9165C23.895 47.9165 22.8352 47.4775 22.0538 46.6961C21.2724 45.9147 20.8334 44.8549 20.8334 43.7498ZM43.75 39.5832V41.6665H6.25004V39.5832L10.4167 35.4165V22.9165C10.4167 16.4582 14.6459 10.7707 20.8334 8.93734C20.8334 8.729 20.8334 8.5415 20.8334 8.33317C20.8334 7.2281 21.2724 6.16829 22.0538 5.38689C22.8352 4.60549 23.895 4.1665 25 4.1665C26.1051 4.1665 27.1649 4.60549 27.9463 5.38689C28.7277 6.16829 29.1667 7.2281 29.1667 8.33317C29.1667 8.5415 29.1667 8.729 29.1667 8.93734C35.3542 10.7707 39.5834 16.4582 39.5834 22.9165V35.4165L43.75 39.5832ZM35.4167 22.9165C35.4167 20.1538 34.3192 17.5043 32.3657 15.5508C30.4122 13.5973 27.7627 12.4998 25 12.4998C22.2374 12.4998 19.5878 13.5973 17.6343 15.5508C15.6808 17.5043 14.5834 20.1538 14.5834 22.9165V37.4998H35.4167V22.9165ZM41.1459 6.64567L38.1875 9.604C41.75 13.1248 43.75 17.9165 43.75 22.9165H47.9167C47.9167 16.8123 45.5 10.9373 41.1459 6.64567ZM2.08337 22.9165H6.25004C6.25004 17.9165 8.25004 13.1248 11.8125 9.604L8.85421 6.64567C4.50004 10.9373 2.08337 16.8123 2.08337 22.9165Z" fill="black"/>
</svg>
