<svg width="40" height="40" viewBox="0 0 40 40" fill="none" xmlns="http://www.w3.org/2000/svg">
<path d="M18.3333 30H21.6667V26.6667H18.3333V30ZM20 10C18.2319 10 16.5362 10.7024 15.286 11.9526C14.0357 13.2029 13.3333 14.8986 13.3333 16.6667H16.6667C16.6667 15.7826 17.0179 14.9348 17.643 14.3096C18.2681 13.6845 19.1159 13.3333 20 13.3333C20.8841 13.3333 21.7319 13.6845 22.357 14.3096C22.9821 14.9348 23.3333 15.7826 23.3333 16.6667C23.3333 20 18.3333 19.5833 18.3333 25H21.6667C21.6667 21.25 26.6667 20.8333 26.6667 16.6667C26.6667 14.8986 25.9643 13.2029 24.714 11.9526C23.4638 10.7024 21.7681 10 20 10ZM8.33333 5H31.6667C32.5507 5 33.3986 5.35119 34.0237 5.97631C34.6488 6.60143 35 7.44928 35 8.33333V31.6667C35 32.5507 34.6488 33.3986 34.0237 34.0237C33.3986 34.6488 32.5507 35 31.6667 35H8.33333C7.44928 35 6.60143 34.6488 5.97631 34.0237C5.35119 33.3986 5 32.5507 5 31.6667V8.33333C5 7.44928 5.35119 6.60143 5.97631 5.97631C6.60143 5.35119 7.44928 5 8.33333 5Z" fill="#999DBA"/>
</svg>
