<svg width="40" height="40" viewBox="0 0 40 40" fill="none" xmlns="http://www.w3.org/2000/svg">
<path d="M20 25.8335C18.4529 25.8335 16.9691 25.2189 15.8752 24.125C14.7812 23.031 14.1666 21.5473 14.1666 20.0002C14.1666 18.4531 14.7812 16.9693 15.8752 15.8754C16.9691 14.7814 18.4529 14.1668 20 14.1668C21.5471 14.1668 23.0308 14.7814 24.1248 15.8754C25.2187 16.9693 25.8333 18.4531 25.8333 20.0002C25.8333 21.5473 25.2187 23.031 24.1248 24.125C23.0308 25.2189 21.5471 25.8335 20 25.8335ZM32.3833 21.6168C32.45 21.0835 32.5 20.5502 32.5 20.0002C32.5 19.4502 32.45 18.9002 32.3833 18.3335L35.9 15.6168C36.2166 15.3668 36.3 14.9168 36.1 14.5502L32.7666 8.7835C32.5666 8.41683 32.1166 8.26683 31.75 8.41683L27.6 10.0835C26.7333 9.4335 25.8333 8.86683 24.7833 8.45016L24.1666 4.0335C24.1 3.6335 23.75 3.3335 23.3333 3.3335H16.6666C16.25 3.3335 15.9 3.6335 15.8333 4.0335L15.2166 8.45016C14.1666 8.86683 13.2666 9.4335 12.4 10.0835L8.24998 8.41683C7.88331 8.26683 7.43331 8.41683 7.23331 8.7835L3.89998 14.5502C3.68331 14.9168 3.78331 15.3668 4.09998 15.6168L7.61664 18.3335C7.54998 18.9002 7.49998 19.4502 7.49998 20.0002C7.49998 20.5502 7.54998 21.0835 7.61664 21.6168L4.09998 24.3835C3.78331 24.6335 3.68331 25.0835 3.89998 25.4502L7.23331 31.2168C7.43331 31.5835 7.88331 31.7168 8.24998 31.5835L12.4 29.9002C13.2666 30.5668 14.1666 31.1335 15.2166 31.5502L15.8333 35.9668C15.9 36.3668 16.25 36.6668 16.6666 36.6668H23.3333C23.75 36.6668 24.1 36.3668 24.1666 35.9668L24.7833 31.5502C25.8333 31.1168 26.7333 30.5668 27.6 29.9002L31.75 31.5835C32.1166 31.7168 32.5666 31.5835 32.7666 31.2168L36.1 25.4502C36.3 25.0835 36.2166 24.6335 35.9 24.3835L32.3833 21.6168Z" fill="#999DBA"/>
</svg>
