<svg width="40" height="40" viewBox="0 0 40 40" fill="none" xmlns="http://www.w3.org/2000/svg">
<path d="M26.6667 15.0002H35.8334L26.6667 5.8335V15.0002ZM11.6667 3.3335H28.3334L38.3334 13.3335V30.0002C38.3334 30.8842 37.9822 31.7321 37.3571 32.3572C36.732 32.9823 35.8841 33.3335 35.0001 33.3335H11.6667C9.81675 33.3335 8.33341 31.8335 8.33341 30.0002V6.66683C8.33341 5.78277 8.6846 4.93493 9.30972 4.30981C9.93485 3.68469 10.7827 3.3335 11.6667 3.3335ZM5.00008 10.0002V36.6668H35.0001V40.0002H5.00008C4.11603 40.0002 3.26818 39.649 2.64306 39.0238C2.01794 38.3987 1.66675 37.5509 1.66675 36.6668V10.0002H5.00008Z" fill="#999DBA"/>
</svg>
