<svg width="30" height="30" viewBox="0 0 30 30" fill="none" xmlns="http://www.w3.org/2000/svg">
<path d="M15 5.625C8.75 5.625 3.4125 9.5125 1.25 15C3.4125 20.4875 8.75 24.375 15 24.375C15.45 24.375 15.9 24.375 16.35 24.3125C16.2875 23.9125 16.25 23.525 16.25 23.125C16.25 22.675 16.3 22.225 16.375 21.775C15.925 21.825 15.4625 21.875 15 21.875C10.3 21.875 6.0375 19.2 3.975 15C6.0375 10.8 10.3 8.125 15 8.125C19.7 8.125 23.9625 10.8 26.025 15C25.875 15.3 25.7 15.5625 25.5375 15.85C26.3625 16.05 27.15 16.3875 27.8625 16.875C28.2 16.25 28.5 15.625 28.75 15C26.5875 9.5125 21.25 5.625 15 5.625ZM15 11.25C14.0054 11.25 13.0516 11.6451 12.3483 12.3483C11.6451 13.0516 11.25 14.0054 11.25 15C11.25 15.9946 11.6451 16.9484 12.3483 17.6517C13.0516 18.3549 14.0054 18.75 15 18.75C15.9946 18.75 16.9484 18.3549 17.6517 17.6517C18.3549 16.9484 18.75 15.9946 18.75 15C18.75 14.0054 18.3549 13.0516 17.6517 12.3483C16.9484 11.6451 15.9946 11.25 15 11.25ZM22.5 18.125V21.875H18.75V24.375H22.5V28.125H25V24.375H28.75V21.875H25V18.125H22.5Z" fill="black"/>
</svg>
